<?xml version="1.0" encoding="utf-8"?>
<!-- Generator: Adobe Illustrator 19.2.1, SVG Export Plug-In . SVG Version: 6.00 Build 0)  -->
<svg version="1.1" id="f5911d75-42dc-41c2-a367-6fb666f6539b_1" xmlns="http://www.w3.org/2000/svg" xmlns:xlink="http://www.w3.org/1999/xlink" x="0px" y="0px"
	 viewBox="0 0 16 16" style="enable-background:new 0 0 16 16;" xml:space="preserve">
<g>
	<path style="fill:#757575;" d="M5,11H4v-1l0,0c-0.4,0.7-1.1,1-2,1c-0.6,0-1.1-0.2-1.5-0.5S0,9.8,0,9.3c0-1.1,0.7-1.8,2.1-2L4,7.1
		c0-1-0.4-1.5-1.3-1.5c-0.8,0-1.5,0.2-2.1,0.7v-1C1.2,5,1.9,4.8,2.8,4.8C4.2,4.8,5,5.5,5,7V11z M4,7.9L2.5,8.1
		C2,8.1,1.6,8.2,1.4,8.4S1,8.8,1,9.2C1,9.5,1.1,9.8,1.4,10s0.5,0.3,0.9,0.3c0.5,0,0.9-0.2,1.2-0.5S4,9,4,8.5V7.9z"/>
</g>
<g>
	<path style="fill:#757575;" d="M16,10.6c-0.4,0.3-0.9,0.4-1.5,0.4c-0.8,0-1.4-0.3-1.8-0.8C12.2,9.7,12,8.8,12,8
		c0-0.9,0.3-1.6,0.8-2.1c0.5-0.6,1.2-0.9,2-0.9c0.5,0,0.9,0.1,1.2,0.3v0.9c-0.4-0.3-0.8-0.4-1.3-0.4c-0.5,0-1,0.2-1.3,0.6
		c-0.3,0.4-0.5,1-0.5,1.7c0,0.7,0.2,1.2,0.5,1.6c0.3,0.4,0.8,0.6,1.3,0.6c0.5,0,0.9-0.2,1.3-0.5V10.6z"/>
</g>
<g>
	<path style="fill:#44A147;" d="M7,10L7,10v1H6V2h1v4l0,0c0.4-0.8,0.9-1.2,1.8-1.2c0.7,0,1.2,0.3,1.6,0.8C10.8,6.1,11,6.8,11,7.7
		c0,1-0.2,1.8-0.7,2.4c-0.4,0.6-1,0.9-1.8,0.9C7.8,11,7.4,10.7,7,10z M6.9,7.6v0.8C6.9,9,7,9.4,7.3,9.7c0.3,0.3,0.7,0.5,1.1,0.5
		c0.5,0,0.9-0.2,1.2-0.7s0.4-1.1,0.4-1.9c0-0.7-0.1-1.2-0.4-1.6C9.4,5.8,9,5.6,8.6,5.6C8,5.6,7.6,5.8,7.3,6.2S6.9,7,6.9,7.6z"/>
</g>
</svg>
