<?xml version="1.0" encoding="utf-8"?>
<!-- Generator: Adobe Illustrator 19.2.1, SVG Export Plug-In . SVG Version: 6.00 Build 0)  -->
<svg version="1.1" id="d7b589c4-c56a-4958-bf96-c714335ec897_1" xmlns="http://www.w3.org/2000/svg" xmlns:xlink="http://www.w3.org/1999/xlink" x="0px" y="0px"
	 viewBox="0 0 16 16" style="enable-background:new 0 0 16 16;" xml:space="preserve">
<polygon style="fill:#757575;" points="2,3 2,2 0,2 0,3 0,11 0,12 2,12 2,11 1,11 1,3 "/>
<polygon style="fill:#757575;" points="8,3 8,2 10,2 10,3 10,11 10,12 8,12 8,11 9,11 9,3 "/>
<g>
	<path style="fill:#757575;" d="M15,10.6c-0.4,0.3-0.9,0.4-1.5,0.4c-0.8,0-1.4-0.3-1.8-0.8C11.2,9.7,11,8.8,11,8
		c0-0.9,0.3-1.6,0.8-2.1c0.5-0.6,1.2-0.9,2-0.9c0.5,0,0.9,0.1,1.2,0.3v0.9c-0.4-0.3-0.8-0.4-1.3-0.4c-0.5,0-1,0.2-1.3,0.6
		c-0.3,0.4-0.5,1-0.5,1.7c0,0.7,0.2,1.2,0.5,1.6c0.3,0.4,0.8,0.6,1.3,0.6c0.5,0,0.9-0.2,1.3-0.5V10.6z"/>
</g>
<g>
	<path style="fill:#757575;" d="M4,10L4,10v1H3V2h1v4l0,0c0.4-0.8,0.9-1.2,1.8-1.2C6.5,4.8,7,5,7.4,5.6C7.8,6.1,8,6.8,8,7.7
		c0,1-0.2,1.8-0.7,2.4c-0.4,0.6-1,0.9-1.8,0.9C4.8,11,4.4,10.7,4,10z M3.9,7.6v0.8C3.9,9,4,9.4,4.3,9.7c0.3,0.3,0.7,0.5,1.1,0.5
		c0.5,0,0.9-0.2,1.2-0.7C7,9.1,7.1,8.5,7.1,7.7c0-0.7-0.1-1.2-0.4-1.6S6,5.6,5.6,5.6C5,5.6,4.6,5.8,4.3,6.2S3.9,7,3.9,7.6z"/>
</g>
</svg>
