<?xml version="1.0" encoding="utf-8"?>
<!-- Generator: Adobe Illustrator 19.2.1, SVG Export Plug-In . SVG Version: 6.00 Build 0)  -->
<svg version="1.1" id="424f51ed-51c4-45d6-a879-30520fa4418f_1" xmlns="http://www.w3.org/2000/svg" xmlns:xlink="http://www.w3.org/1999/xlink" x="0px" y="0px"
	 viewBox="0 0 16 16" style="enable-background:new 0 0 16 16;" xml:space="preserve">
<g>
	<path style="fill:#757575;" d="M7,11H6v-1l0,0c-0.4,0.7-1.1,1-2,1c-0.6,0-1.1-0.2-1.5-0.5S2,9.8,2,9.3c0-1.1,0.7-1.8,2.1-2L6,7.1
		c0-1-0.4-1.5-1.3-1.5c-0.8,0-1.5,0.2-2.1,0.7v-1C3.2,5,3.9,4.8,4.8,4.8C6.2,4.8,7,5.5,7,7V11z M6,7.9L4.5,8.1
		C4,8.1,3.6,8.2,3.4,8.4S3,8.8,3,9.2C3,9.5,3.1,9.8,3.4,10c0.2,0.2,0.5,0.3,0.9,0.3c0.5,0,0.9-0.2,1.2-0.5S6,9,6,8.5V7.9z"/>
</g>
<polygon style="fill:#757575;" points="2,4 2,3 0,3 0,4 0,12 0,13 2,13 2,12 1,12 1,4 "/>
<polygon style="fill:#757575;" points="7,4 7,3 9,3 9,4 9,12 9,13 7,13 7,12 8,12 8,4 "/>
<g>
	<path style="fill:#757575;" d="M11,10L11,10v1h-1V2h1v4l0,0c0.4-0.8,0.9-1.2,1.8-1.2c0.7,0,1.2,0.3,1.6,0.8C14.8,6.1,15,6.8,15,7.7
		c0,1-0.2,1.8-0.7,2.4c-0.4,0.6-1,0.9-1.8,0.9C11.8,11,11.4,10.7,11,10z M10.9,7.6v0.8c0,0.5,0.1,0.9,0.4,1.3
		c0.3,0.3,0.7,0.5,1.1,0.5c0.5,0,0.9-0.2,1.2-0.7s0.4-1.1,0.4-1.9c0-0.7-0.1-1.2-0.4-1.6c-0.3-0.4-0.7-0.6-1.1-0.6
		c-0.5,0-0.9,0.2-1.2,0.6S10.9,7,10.9,7.6z"/>
</g>
</svg>
