<?xml version="1.0" encoding="utf-8"?>
<!-- Generator: Adobe Illustrator 24.1.2, SVG Export Plug-In . SVG Version: 6.00 Build 0)  -->
<svg version="1.1" id="Layer_1" xmlns="http://www.w3.org/2000/svg" xmlns:xlink="http://www.w3.org/1999/xlink" x="0px" y="0px"
	 viewBox="0 0 500 500" style="enable-background:new 0 0 500 500;" xml:space="preserve">
<style type="text/css">
	.st0{fill:#FAFAFA;}
	.st1{fill:#FCFCFC;}
	.st2{fill:#7D070B;}
	.st3{fill:#7A080C;}
	.st4{fill:#2E3F16;}
	.st5{fill:#0D0D0D;}
	.st6{fill:#2B3D14;}
	.st7{fill:#101010;}
	.st8{fill:#325118;}
	.st9{fill:#335117;}
	.st10{fill:#BAD6AE;}
	.st11{fill:#B7D5AA;}
	.st12{fill:#0C0C0C;}
	.st13{fill:#910C10;}
	.st14{fill:#314E15;}
	.st15{fill:#5F7E2B;}
	.st16{fill:#3C5E18;}
	.st17{fill:#476C1D;}
	.st18{fill:#547423;}
	.st19{fill:#658931;}
	.st20{fill:#98BB85;}
	.st21{fill:#A8CB98;}
	.st22{fill:#9ABB86;}
	.st23{fill:#5A7D25;}
	.st24{fill:#89AF72;}
	.st25{fill:#9CBD89;}
	.st26{fill:#3F6819;}
	.st27{fill:#7FA569;}
	.st28{fill:#C9C9C9;}
	.st29{fill:#809F5C;}
	.st30{fill:#94343D;}
	.st31{fill:#73934A;}
	.st32{fill:#B37B7D;}
	.st33{fill:#84A464;}
	.st34{fill:#8B2C2F;}
	.st35{fill:#D2E1C6;}
	.st36{fill:#688937;}
	.st37{fill:#F2E9D8;}
	.st38{fill:#AA6F70;}
	.st39{fill:#A66F6B;}
	.st40{fill:#ABABAB;}
	.st41{fill:#767676;}
	.st42{fill:#2F2F2F;}
	.st43{fill:#EADECA;}
	.st44{fill:#777777;}
	.st45{fill:#B3B3B3;}
	.st46{fill:#484848;}
	.st47{fill:#C5C5C5;}
	.st48{fill:#565656;}
	.st49{fill:#CECECE;}
	.st50{fill:#4D4D4D;}
	.st51{fill:#530B0D;}
	.st52{fill:#535353;}
	.st53{fill:#DDDDDD;}
	.st54{fill:#454545;}
	.st55{fill:#585858;}
	.st56{fill:#3B3B3B;}
	.st57{fill:#F9F9F9;}
	.st58{fill:#B1B1B1;}
	.st59{fill:#444444;}
	.st60{fill:#F2F2F2;}
	.st61{fill:#DCDCDC;}
	.st62{fill:#E4E4E4;}
	.st63{fill:#525252;}
</style>
<g>
	<g>
		<path class="st0" d="M13.4,155.7c0-4.1,0-8.3,0-12.4c4.8-6.9,5.3-13.8,0-20.7c0-2.1,0-4.1,0-6.2c4.3-6.4,2.7-13.9,3-20.8
			c0.6-15.2,0-30.4,0.3-45.6C17,36.3,21.2,34,34.4,33.3c16-0.8,32.3,2.5,48.2-2.3c2.6-0.8,5.7-1.2,8.2-0.3
			c14.7,5.5,30.3,2.9,45.1,2.7c23.6-0.4,47.4,4.7,70.9-1.2c3.6-0.9,7.8-1.8,11.3-0.2c11.3,5.3,20,1.1,27.8-7c5.5,0,11.1,0,16.6,0
			c15.5,8.7,31.5,14.5,49.4,7.7c4.3-1.6,8.8-2.9,13.1-1.7c9,2.6,16.1-0.1,22.6-6c12.5,0,24.9,0,37.4,0c6.9,3.2,13.8,3.2,20.8,0
			c12.5,0,24.9,0,37.4,0c4.2,8.6,12.3,10.4,20.6,11.3c7.2,0.8,12.3,3.3,13.6,11.3c1.1,6.4,7.7,8.4,11.5,12.7c0,4.8,0,9.7,0,14.5
			c-5.8,11.1-4.4,22.1,0,33.2c0,5.5,0,11.1,0,16.6c-1.8,1.9-2.1,4.3-2.1,6.7c-0.1,33-2.7,65.9-1.1,99c0.2,3.8,0,7.6,3.2,10.5
			c0,5.5,0,11.1,0,16.6c-5.4,16.6-8.9,33.2,0,49.8c0,11.1,0,22.1,0,33.2c-4.4,5-5.7,11-5.4,17.3c0.3,8.9-4.1,13.5-12.5,14.9
			c-10.8,1.8-21.5,5.2-32.4-0.2c-5.6-2.8-10.9-0.3-14.8,4.3c-7.9,9.4-17,11.4-28.7,7.3c-7.4-2.6-15.7-1.8-23.5-2.9
			c-10.9-1.5-19.6-2.3-27.8,8c-3.5,4.4-8.3,7.6-11,13.5c-5.2,11.2-12.8,21.2-20.2,31.1c-3.4,4.5-8.8,8-14.2,7.9
			c-13.7-0.3-20.4,7.8-25.8,19c8,4.1,15.2,6.6,23.1-1.3c5.5-5.5,12.8-4.2,19.3-0.5c3.3,1.9,6.2,4.3,9.2,6.7
			c4.6,3.6,8.9,4.2,11.9-1.7c3.1-6.1,8.3-7.1,14.4-8.2c17.2-3.3,34.4,0.9,51.6-1.3c8.1-1,16.3,2.6,24.2,5c6.7,2,12.7,2.5,19-0.7
			c5.2-2.6,10.6-3.4,15.6,0.6c3,2.4,6.3,2.4,9.8,1.9c4.7-0.7,8.3,1,9.4,5.9c1,4.4-1.5,7-5.2,9.1c-3,1.7-6.5,2.4-8.9,5.2
			c-21.4,0-42.9,0-64.3,0c-4.1-3.6-8.7-6.1-14.4-7.3c0.3,3.4,5.6,3.4,4,7.3c-54,0-107.9,0-161.9,0c-2.1-1.8-4.2-2.8-6.2,0
			c-23.5,0-47,0-70.6,0c-2.7-5,1.2-6.8,4.3-8.8c11.2-7.1,23.6-9.3,36.6-8c2.7,0.3,5.4,1.2,8.2,0.9c3.8-0.3,5.6-2.5,5.1-6.2
			c-0.5-3.7-2.8-5.9-6.5-4.5c-10.4,3.8-20,4.4-31,0.3c-8.5-3.2-23.8,10.3-24.9,19.6c-0.3,2.4-0.4,4.8-2.3,6.6c-29.7,0-59.5,0-89.2,0
			c-2.1-3-4.2-3.4-6.2,0c-6.9,0-13.8,0-20.8,0c-7.1-8.1-9.5-17.5-9.5-28.3c0-8.5,3-17.7-3-25.7c0-10.4,0-20.7,0-31.1
			c3.5-7.6,2.3-15.2,0-22.8c0-6.2,0-12.4,0-18.7c2-2.1,3.2-4.4,3.1-7.4c-0.4-23,1.2-46-1-68.9c-0.2-2.4-0.3-4.8-2.1-6.7
			c0-4.1,0-8.3,0-12.4c4.6-4.4,3.7-10,2.8-15.3c-1.5-8.7-0.9-16.8,5.7-24c-3.8-2.2-7.5-4-8.5-8.4c0-1.4,0-2.8,0-4.1
			c2-2,3.1-4.4,3.1-7.4c0.1-12.4,0.1-24.8,0-37.1C16.6,160.1,15.5,157.7,13.4,155.7z"/>
		<path class="st1" d="M465.9,481.4c0.1-4.8,3.7-6.4,7.3-7.6c4-1.3,6.3-3.3,4.4-7.5c-1.8-4.2-5.3-4-8.6-1.9
			c-4.1,2.6-6.7,1.7-9.3-2.3c-2-3.2-5.8-4.8-9.1-2.8c-9.6,5.8-18.5,5.9-29.2,1.9c-10.7-4-22.4-3.5-34.2-3.4
			c-12.6,0.1-25.2,0.6-37.9,0.8c-5.4,0.1-8.7,1.2-10.9,7c-3.3,8.6-7.9,9.2-14.8,3.5c-3.4-2.9-6.7-6.1-10.6-8.2
			c-6-3.2-12.3-4.5-17.5,2.1c-4.6,5.8-9.8,8.4-16.8,3.2c-3.6-2.6-9.2,0-12.9-4.7c4.8-3.8,9-8.3,11.5-14.4c2.4-5.8,7.6-7.2,13.7-7.1
			c11.5,0.2,20-5,24.7-15.4c4.9-10.8,16-18.3,16.8-31.3c0-0.3,0.2-0.8,0.5-0.9c8.4-3.9,15.6-9.2,19.9-17.8c0.4-0.8,4-1.1,4.8-0.4
			c9.3,9.5,21.6,1.6,31.7,5.7c0.9,0.4,2.3-0.3,3.1,0.1c13.9,7.9,23.7,3.5,32.4-9c2.6-3.7,9.2-4.8,14.3-1.6c12,7.3,23.9,1.6,35.7-0.6
			c6.6-1.2,5.4-7,5.5-11.7c0.1-6.8-1.1-14.4,8.3-16.6c0,44.6-0.2,89.2,0.2,133.8c0,6.2-1.2,8.2-7.5,7.4
			C476.3,480.8,471.1,481.4,465.9,481.4z"/>
		<path class="st1" d="M245.9,25c-4,11.8-15,16.5-25.4,10.7c-7.4-4.1-14.7,0-21.9,0.3c-12.8,0.6-25.3,5.1-38.3-0.1
			c-3.8-1.5-8.9-0.5-13.2,0.4c-6.2,1.3-12.2,1.6-18.3-0.2c-4.7-1.4-9.7-1.5-14.3,0c-6,1.9-11.5,1.8-16.9-1.2
			c-4.2-2.3-9.1-2.5-13.1-1.3c-18.4,5.2-36.9,2.9-55.4,2.1c-7.2-0.3-9.2,4.7-9.2,11c0.1,13.1-0.6,26.3,0.2,39.3
			c0.5,8.9-2.8,17.5-0.7,26.5c0.9,4.1-3,3.6-5.7,3.9c0-27.6,0.4-55.2-0.3-82.7c-0.2-8.1,2.4-8.7,9.3-8.7
			C96.9,25.1,171.4,25,245.9,25z"/>
		<path class="st1" d="M142.1,481.4c-0.3-17.7,6.5-26.2,24.4-30.6c2.2-0.6,4.3-0.1,5.8,1.2c8.2,7.3,16.7,3.5,25.1,0.6
			c3.5-1.2,7.4-4.6,10.2-0.5c2.6,3.8,4.6,8.9,2,13.7c-2.5,4.6-7.4,3.7-11.2,2.7c-15.3-4.3-29,0.2-42.3,7.1c-2.4,1.3-3.5,3.2-3.6,5.8
			C149,481.4,145.6,481.4,142.1,481.4z"/>
		<path class="st1" d="M488.7,60.2c-8.2-1-14-4.7-14.5-13.7c-0.3-4.5-2.4-6.7-6.9-7.1c-4.7-0.4-9.4-1.4-14-2.1
			c-7.1-1.1-11.2-4.6-10.1-12.4c13.5,0,27,0.2,40.5-0.1c4.5-0.1,5.5,0.8,5.3,5.3C488.4,40.2,488.7,50.2,488.7,60.2z"/>
		<path class="st1" d="M347.6,25c-3.4,9.4-9.7,12.6-19.4,9.2c-4.3-1.5-9.5-2.3-13,0.1c-16.9,11.5-32.7-0.6-49-1.7
			c-3.7-0.3-3.7-4.4-3.7-7.6C290.9,25,319.2,25,347.6,25z"/>
		<path class="st1" d="M488.7,240.7c-3.1-0.2-6.2-1.7-5.8-4.7c1.2-9.3-4.3-18.1-1.2-27.5c1-3.2,1-6.8,0.8-10.2
			c-1.3-22.4,2.2-44.5,2.1-66.9c0-3.2-0.2-6.4,4.1-7C488.7,163.3,488.7,202,488.7,240.7z"/>
		<path class="st1" d="M13.4,271.8c7.3,3.8,5.7,11.3,6,17.1c0.7,19,0.2,38,0.3,57c0,4.5-0.6,8.4-6.2,8.9
			C13.4,327.2,13.4,299.5,13.4,271.8z"/>
		<path class="st1" d="M13.4,427.4c4.8,0.4,6.3,3.4,6.2,7.7c-0.1,3.4,0.5,6.9-0.1,10.2c-2.5,12.9,3.2,24.2,6.3,36
			c-10.6,2.3-13.7-1.7-12.7-12.5C14.3,455.2,13.4,441.3,13.4,427.4z"/>
		<path class="st1" d="M488.7,307.1c-6.8-0.3-7.6-6.5-7.7-10.5c-0.2-11.5,0.9-23.1,1.8-34.6c0.2-3.1,2.9-4.5,5.9-4.7
			C488.7,273.9,488.7,290.5,488.7,307.1z"/>
		<path class="st1" d="M13.4,155.7c4.9,0.4,6.2,3.5,6.2,7.8c-0.1,12.1-0.1,24.2,0,36.2c0,4.4-1.4,7.4-6.2,7.8
			C13.4,190.2,13.4,172.9,13.4,155.7z"/>
		<path class="st1" d="M13.4,211.7c2,1.2,2.9,3.7,5.7,4.1c8.4,1.3,10.7,2.9,2.2,9.4c-4.9,3.7-4,11.5-2.7,18.3
			c1.2,5.7,4.8,13.4-5.2,15.9C13.4,243.5,13.4,227.6,13.4,211.7z"/>
		<path class="st1" d="M488.7,107.9c-9.1-7.7-9.1-28.2,0-33.2C488.7,85.8,488.7,96.9,488.7,107.9z"/>
		<path class="st1" d="M391.2,481.4c-3-2.1-6-4.2-9-6.4c7.7-5.3,14.6-2.9,19.4,6.4C398.1,481.4,394.6,481.4,391.2,481.4z"/>
		<path class="st1" d="M13.4,122.5c5.1-0.4,6.8,2.4,6.2,6.9c-0.7,5.2,2.9,12.4-6.2,13.8C13.4,136.3,13.4,129.4,13.4,122.5z"/>
		<path class="st1" d="M405.7,25c-6.9,6.5-13.8,6.5-20.8,0C391.9,25,398.8,25,405.7,25z"/>
		<path class="st1" d="M13.4,373.5c4.7,7.6,6.9,15.2,0,22.8C13.4,388.7,13.4,381.1,13.4,373.5z"/>
		<path class="st1" d="M46.6,481.4c0.7-2.2-1.6-6.2,2.1-6.5c3.9-0.4,4.2,3.4,4.2,6.5C50.8,481.4,48.7,481.4,46.6,481.4z"/>
		<path class="st1" d="M223.1,481.4c0.3-1.9-0.8-4.8,2-5.1c2.8-0.2,3,3.2,4.3,5.1C227.2,481.4,225.1,481.4,223.1,481.4z"/>
		<path class="st1" d="M71.5,336c10.5,13.5,10.5,13.5,22,2.1c7-6.9,14.2-13.7,21.3-20.6c1.9-1.6,3.4-0.3,5,0.6
			c3.1,2.6,5.7,5.6,8.6,8.4c1.5,1.6,3.1,3.1,4.6,4.6c2.8,2.8,5.6,5.6,8.5,8.4c5.5,5.6,11.1,11.1,16.7,16.6
			c13.5,13.6,27.1,27,40.5,40.6c3.1,3.1,6.7,5.9,7.1,10.9c-0.8,5.5-4.5,8.7-9.5,9.7c-4.5,0.9-6,4.1-8.1,7.2
			c-9.7,7.3-21.5,8.4-32.7,11.5c-17,3.6-34.2,5.1-51.1,0.3c-22.1-6.3-36-21.1-40.6-43.6c-3.5-17.1-2.6-34.2,2.6-51
			C67.3,339.1,67.8,336,71.5,336z"/>
		<path class="st1" d="M438.6,151.5c-5.1-4.5-11.2-13.3-15.1-12.4c-6.3,1.4-11.1,9.3-16.6,14.3c-6.8,6.2-12.3,13.8-20.1,18.9
			c-9.6-1.3-12.9-10.6-19.7-15.4c-8.2-8.5-16.6-16.8-25.1-25c-11.3-11.5-22.9-22.8-34.2-34.3c-2.9-2.9-6.2-5.5-7.1-9.9
			c0-3-0.4-6,0.9-8.8c15.3-9.6,32.6-14.1,49.6-19c18.4-3.4,36.7-5.3,54.8,1.2c32.7,9.8,41.9,42.8,39.1,69.6
			C444.4,137.7,446.1,146.3,438.6,151.5z"/>
		<path class="st2" d="M71.5,336c-7.6,22.4-10,45.1-0.9,67.4c9.9,24.1,30.6,32.3,54.9,32.6c10.2,0.1,20.5-1.8,30.7-2.7
			c4.1-0.9,8.2-1.9,8.7,4.3c-25.7,9.1-51.9,14.3-79.1,8.4c-25.4-5.6-42.1-26.2-43.4-52.3c-1.9-37.7,12.7-70.5,29.5-103
			c9.8,5,12.5,10.9,7.4,20.9C75.4,319.2,72,327.3,71.5,336z"/>
		<path class="st3" d="M438.6,151.5c4.6-17.6,5.7-35.1,0.6-52.9c-5.1-17.7-17-28.3-33.4-35.1c5.7-6.5,11-4.1,16.4,0.5
			c1.9,1.7,4.2,4.9,6.6,1.1c2.1-3.4-0.2-5.7-3.3-7.2c-2.8-1.4-6.1-1-9-1.7c-3.2-0.8-7.4-1.4-4.4-6.6c24.7-0.7,46.3,16.8,51.4,42
			c6.3,31.3-3.4,59.9-15.4,88.1c-2.4,5.7-4.9,11.5-8.3,16.6c-1.8,2.7-1,10.4-6.9,7.3c-4.9-2.6-10.2-6.9-6.3-15
			C432.3,176.9,436.4,164.5,438.6,151.5z"/>
		<path class="st4" d="M179.2,115.7c23.5-23.8,47-47.7,70.5-71.5c2.6-2.6,4.5-3.1,7.5,0c9.9,10.5,20.2,20.7,30.4,31
			c-13.2,11.1-13.8,11.6-25.1-1.2c-6.9-7.8-10.9-6.7-17.4,0c-18,18.5-36.7,36.5-55.1,54.6c-1.2,0.6-2.8,0-3.9,0.6
			c-6.7,3.5-8.3,0.4-7.9-5.7C178.3,121,178.3,118.3,179.2,115.7z"/>
		<path class="st5" d="M169.7,278.4c4.2-2,5.8-5.2,5.7-10c-0.3-16.2-0.4-32.5,0.1-48.7c0.1-4.8-2.9-7.4-5.4-12
			c17.3,0,34.1-3,48.7,8.1c0.6,0.3,1.2,0.6,1.8,1.1c13.6,11.6,10.9,27.3,8.1,41.4c-2.6,13-11.9,22.3-26.6,24
			c-8.6,1-17.2,0.7-25.9,0.4C173.5,282.7,169.7,283,169.7,278.4z"/>
		<path class="st6" d="M303.9,404.3c-15.3,15.4-30.8,30.6-45.9,46.3c-3.7,3.8-5.7,3.4-9,0c-7.6-8-15.7-15.5-23.2-23.6
			c-1.9-2.1-8.1-3.9-4.1-8c4.3-4.3,9.7-9.7,16.7-3.8c3.4,2.9,6.8,5.9,9.6,9.4c4.1,5.3,7,4.2,11.2-0.2c11-11.4,22.6-22.2,34-33.2
			C297.7,394.9,301.7,398.9,303.9,404.3z"/>
		<path class="st7" d="M260.4,284.1c-26.5-16.1-26.3-43.3-17.2-61.5c6.6-13.2,18.9-18.6,33.5-15.5c6.8,1.5,13.2,4.6,20.4,4.5
			c-2.4,5.6-3.3,11.9-8.1,16.4c-1.2,0.4-3.1,1.4-3.2-0.4c-0.6-6.9-5.7-9.3-10.9-11.7c-0.6-0.7-1.4-1.2-2.2-1.6
			c-11,0.2-15.6,4.5-17.8,16.7c-0.1,7.9,0,15.7,0,23.5c0.3,7.4,2.4,13.7,9.7,17.1c8.9,9.3,17.9,6.9,23.5-5.6
			c1.6-3.5-1.5-9.7,5.3-10.6c4.7,11.1,1.1,19.6-11.9,28c-1.4,0.7-2.7,1.6-4.2,2.1c-1.5,0.5-2.9,0.5-4.4-0.1
			c-3.6-1.6-7.5-0.3-11.2-1.1C261.4,284.2,260.9,284.2,260.4,284.1z"/>
		<path class="st8" d="M204.5,406.5c-16-16.5-32-32.9-48-49.4c-2.6-5.5,4.8-10.8,0.3-16.5c-0.5-0.6,1.6-3.6,4.3-2.5
			c20.5,20.2,41,40.3,61.5,60.5C219.2,408.7,211.8,411.9,204.5,406.5z"/>
		<path class="st9" d="M301.6,87.7c13.9,14.3,27.9,28.7,41.8,43c0.9,2.2,1.2,4.6,1.8,6.8c2.2,7.3-0.3,11.1-8.3,10.4
			c-17.3-16.8-34.6-33.6-51.9-50.3C287.5,89.2,292.8,85.6,301.6,87.7z"/>
		<path class="st10" d="M428.3,257.1c9.2-7.1,5.6-13-1.5-18.8c-2.6-2.1-4.6-4.9-6.9-7.4c1.3-7.8-4.4-15.8,0.5-23.5
			c11.7,11.5,23.4,22.9,35,34.5c3.5,3.5,3.1,7.6-0.4,10.9c-8.8,8.4-15,19.5-26.1,25.7c-5.1-2.5-2.9-6.3-1.3-9.5
			C429.6,265,429.6,261.2,428.3,257.1z"/>
		<path class="st11" d="M89.9,228.1c-2.5,6-7.8,9.7-12.3,13.6c-5.9,5.1-4.9,8.2,0.3,12.8c3.7,3.3,9.1,5.4,10.1,11.2
			c-1.8,3.1-1.5,6.3-0.8,9.7c0.9,3.7,1.2,7.4-3.4,9.1c-6.2-4.8-11.6-10.6-16.5-16.7c-0.8-1.1-1.5-2.3-2.1-3.5
			C63,259.6,56,257.8,57,251c1.2-8.2,2.7-16.2,8.4-22.6c6.1-7.6,12.8-14.7,20.9-20.3c4.1,2.9,4.5,6.9,2.3,10.8
			C86.5,222.5,87.6,225.3,89.9,228.1z"/>
		<path class="st12" d="M306.2,279.9c4.6-4,6.6-8.6,6.3-15.1c-0.7-12.7-0.1-25.5-0.2-38.2c0-6.6,1.4-13.8-9.5-18.6
			c11.7,0,19.7,0,28.4,0c-1.7,3-3.1,5.4-4.4,7.9c0,0.6,0,1.1,0,1.7c0,18.1,0,36.2,0,54.3c0.4,1.3-0.6,3.7,2.3,3.3
			c1.8,1.3,3.7,2.4,3.9,4.9c-0.8,1-1.9,1.7-3.1,2.1C321.9,282.7,313.7,285.2,306.2,279.9z"/>
		<path class="st13" d="M412.1,49.6c0.9,6.7,6.2,4.1,9.8,4.3c5.6,0.3,10.2,3,11.6,7.6c0.8,2.7-1.8,7.8-4.4,9.8
			c-2.8,2.1-5.6-2.2-7.2-4.3c-4.6-5.9-9.8-5.9-16-3.5c-18.4-6-36.9-3.7-55.4-0.9c-3.9,0.8-7.2,0.8-6.9-4.6
			c13.3-5.7,27.3-8.2,41.6-9.9C394,50,403.2,47.5,412.1,49.6L412.1,49.6z"/>
		<path class="st14" d="M303.9,404.3c-5.5-2.7-8.7-7.4-10.7-13.1c0.7-0.7,1.3-1.4,2-2.1c1.6,0.5,3,1.4,4.4,2.1
			c0.6-2-0.5-3.8-0.7-5.8c10.4-11.8,21.6-22.8,33.4-33.1c8.1,0.8,11.2,4.8,8.7,11.6c-0.9,2.6-3.2,4.4-4.1,7.1
			C326,382.2,315,393.3,303.9,404.3z"/>
		<path class="st15" d="M127.2,167.4c8.9-9,16.8-19.1,27.3-26.4c6.2,2,7.2,6.3,2.9,10.4c-4.5,4.3-1.1,6,1.4,8.4
			c-9.8,11.1-20,21.7-31.7,30.8c-6-3.1-4.8-10.2-8.2-14.7c0.6-0.6,1.2-1.3,1.9-1.9C123.1,172,125.4,169.9,127.2,167.4z"/>
		<path class="st16" d="M158.8,159.8c-7.3-0.5-12.8-1.8-3.7-9.1c4.5-3.5,2.6-6.7-0.6-9.8c7.4-9.3,15.4-17.9,24.7-25.3
			c2.2,4.3,0.4,8.9,1.3,13.9c3.1-0.9,6-6.7,9.4-0.9C179.5,139.1,169.1,149.5,158.8,159.8z"/>
		<path class="st17" d="M337,148c3.4-3.2,12.6-4.2,3.9-11.8c-2.8-2.5,2.1-3.4,2.5-5.4c8.8,7.9,17.4,15.9,24.8,25.1
			c1.1,13.3,0,15.3-8.9,14.7C351.4,163.5,343.8,156.2,337,148z"/>
		<path class="st18" d="M161.1,338.1c-2.8,2.4-5.1,4.2-0.4,7.6c0.9,0.7-2.7,7.5-4.2,11.5c-6.2-4.9-11.8-10.3-16.6-16.6
			c-1-4.7-4.2-7.1-8.6-8.4c-1.3-1.3-2.6-2.7-4-4c1.3-6.8,5.8-9.9,12.4-10.6C146.3,325,155.7,329.4,161.1,338.1z"/>
		<path class="st19" d="M359.4,170.5c3.1-0.5,6.7,0.3,6.1-5.3c-0.3-3,1.8-6.3,2.8-9.4c6.2,5.5,12.3,11,18.5,16.5
			c0.8,1.4,1.5,2.7,2.3,4.1c3.7,13.8,1.9,16.8-8.8,14.9C372.8,184.9,365.5,178.3,359.4,170.5z"/>
		<path class="st20" d="M420.3,207.4c-1.1,7.8,6.1,15.8-0.5,23.5c-8.2-7.1-15.9-14.7-22.7-23.2c1.7-5.6-2.3-13.5,6.3-16.5
			C410.9,194.7,414.8,201.9,420.3,207.4z"/>
		<path class="st21" d="M428.3,257.1c7,2.4,4.8,7,2.5,11.2c-1.8,3.3-4.5,6.1-1.9,10.1c-4,7.7-10.4,12.9-17.1,18
			c-4.4-5.6-3.9-12.3-4.4-18.8C413.8,270.2,418.7,261.3,428.3,257.1z"/>
		<path class="st22" d="M89.9,228.1c-4.8-1.2-11-2-4.3-8.6c4-3.9,1-7.6,0.7-11.5c7.6-6.3,12.4-15.3,20.7-20.9c2.7,6.5,0,14.1,4,20.3
			C105.5,216,96.9,221.3,89.9,228.1z"/>
		<path class="st23" d="M374.6,334.1c-6.2,6.2-12.5,12.4-18.7,18.5c-9-5.3-3.9-12.1-1.5-18.1c1.3-3.3,4.4-5.9,5.4-9.5
			c3-3.2,6-6.3,9-9.5c4-2.3,7.8-2.5,10.6,1.7c2.5,3.7,2.2,7.7-0.5,11.3C377.4,330.3,375.7,332,374.6,334.1z"/>
		<path class="st24" d="M407.4,277.6c4.4,5.6,3.8,12.4,4.4,18.8c-5.5,6.9-11.1,13.7-18.7,18.6c-0.9-0.6-2.1-1.4-1.9-2.2
			c1.5-8.5-3.3-10.2-10.2-9.8C389.8,294.5,398.6,286.1,407.4,277.6z"/>
		<path class="st25" d="M83.8,284.5c2.4-3.4,2.4-6.8,0.4-10.5c-2.2-4.1-1.3-7.3,3.8-8.3c4.6,7.8,15,9.9,18.6,18.8
			c2.5,7.2,3,13.7-6.1,16.6C93,297.4,89.7,289.6,83.8,284.5z"/>
		<path class="st26" d="M359.8,325c1.6,7.9-6.5,12.7-6.5,20.5c0,3.3,2,4.7,2.5,7.1c-5.9,6.6-11.7,13.2-18.8,18.4
			c-0.7-1.5-1.4-3-0.1-4.6c6.2-7.2,2.2-11.1-4.5-14C340.7,342.4,350.1,333.5,359.8,325z"/>
		<path class="st27" d="M100.5,301.1c4.7-4.6,6.7-10.1,6.1-16.6c7.6,6.2,15.5,12.1,21.2,20.2c-4.2,4.4-1.4,12.7-8.7,15.2
			c-1.4-0.8-2.8-1.6-4.2-2.4C110,312,105.3,306.6,100.5,301.1z"/>
		<path class="st28" d="M169.7,278.4c13.5,3,27,3.4,40.2-0.7c10.5-3.3,15.5-12.6,16.9-22.7c1.9-13.7,1.4-27.4-8-39
			c9.6,1.3,14.1,7.7,14.5,20.9c-1.6,5.3-1.4,10.7-0.1,16c0.4,3.1,1.1,6.2-1.6,8.8c-0.7-0.3-1.1-0.8-1.2-1.5c0-0.3,0.2-0.7-0.2-0.8
			c-0.8,2.9-1.9,5.7-3,8.6l0.1-0.1c-4.1,6.6-9.3,11.9-16.8,14.6l0.2-0.1c-3.2,2-7,0.2-10.3,1.7c-9.6,1.6-19.6-1.8-29,2.1
			C169.5,283.8,164.8,282.2,169.7,278.4z"/>
		<path class="st29" d="M110.9,207.5c-9.9-5.1-4.4-13.2-4-20.3c4-3.7,8-7.5,11.9-11.2c7.9,2,6.4,9.3,8.2,14.7
			C123.3,197.8,116.6,202.1,110.9,207.5z"/>
		<path class="st30" d="M343.5,58.1c1.1,3.4,4,4,6.9,4.6c-16.3,5.8-33.1,10.1-48.7,18c-5,5.4-10.8,9.1-18.5,8.9
			c-1.4,0.7-2.7,1.5-4.1,2.2c-1.3-1.6-1.4-3.2-0.3-4.9C299.8,75.9,320.3,64,343.5,58.1z"/>
		<path class="st31" d="M381,303c1.5-0.6,3.3-1,4.6-2c2.6-1.9,5.3-2,7.4-0.1c2.1,1.9,2.8,4.7,0.3,7.3c-2.2,2.2,0.1,4.5-0.1,6.8
			c-5.3,7.3-11.8,13.2-18.5,19.1c0.7-1.8,1.3-3.7,2.2-5.4c4.4-8.8,2.2-12.4-8-13.2C372.9,311.3,376.9,307.2,381,303z"/>
		<path class="st32" d="M278.9,86.9c0.1,1.6,0.2,3.3,0.3,4.9c-15,10.2-29.9,20.4-44.9,30.5c-1.6,1.1-3.8,2.2-5.5,0
			c-2.6-3.3,0.7-4,2.5-5.3C246.6,106.2,262,95.5,278.9,86.9z"/>
		<path class="st33" d="M403.5,191.3c-1.7,3.1-5.3,5.6-3,10.1c1.7,3.3-0.8,5-3.3,6.4c-6.6-4.5-11.9-10.3-16.9-16.4
			c12.9,0.9,5.8-10,8.8-14.9C395.1,180.2,399.3,185.7,403.5,191.3z"/>
		<path class="st34" d="M164.9,437.7c-1.6-4-5.4-3.6-8.7-4.3c10.4-3.9,21.5-5.5,31.4-10.5c5.5-6.2,13.8-6.6,20.7-9.8
			c2.1,0.4,4.4,0.7,4.1,3.8C197.5,425.7,181.9,433.3,164.9,437.7z"/>
		<path class="st35" d="M65.4,228.3c-1.2,3.9-2.9,7.6-3.5,11.6c-1,7.4-6.3,15.7,3.9,21.3c2.1,1.2,1.7,4.2,1.5,6.6
			c-3.2-0.3-4.4-3.1-6.1-5.2c-4.2-5.2-14.7-8.2-12.9-14.5C50.5,240.2,57.5,233.2,65.4,228.3z"/>
		<path class="st36" d="M119,319.9c1.3-3.1,4.9-6.2,3.5-9.4c-2.9-6.7,5.5-2.3,5.2-5.9c4.4,3.9,9.4,7.3,12,12.9
			c-4.1,3.5-8.2,7.1-12.4,10.6C124.6,325.4,121.8,322.7,119,319.9z"/>
		<path class="st37" d="M208.3,414.8c-6.9,2.7-13.7,5.4-20.6,8.1c-0.1-4.7,1.7-7.7,6.9-7.9c5.5-0.1,8.2-3.7,9.8-8.5
			c8.6,3.2,13.1-3.1,18.1-7.9c4.3,0.6,8.6-2.4,12.9-0.2C229.4,408.7,218.8,411.7,208.3,414.8z"/>
		<path class="st38" d="M241.3,396.1c10.7-7.4,21.3-14.8,32-22.2c1.6-1.1,3.5-2.9,5.3-0.7c1.7,2.2-0.2,3.8-1.9,5
			c-10.7,7.2-20.5,15.7-32.5,20.9C242.7,398.6,241.7,397.6,241.3,396.1z"/>
		<path class="st39" d="M241.3,396.1c1,1,1.9,2,2.9,3.1c-10.2,6.5-19.5,14.7-31.7,17.6c-1.4-0.7-2.8-1.4-4.2-2
			c9.1-5.5,18.1-10.9,27.2-16.4C237.4,397.6,239.4,396.8,241.3,396.1z"/>
		<path class="st1" d="M447.2,353.7c-1.7,5-4.6,7.3-9.2,7.3c-3.8,0-6.9-1.2-7.1-5.5c-0.2-4.9,3.5-6.6,7.3-6.4
			C441.5,349.3,445.5,350,447.2,353.7z"/>
		<path class="st1" d="M219.3,454.4c-3.5-0.2-7.8,0.3-7.8-4.4c0-4.6,3.7-7.5,8.1-7.6c4.7-0.1,7.5,3.2,7.4,7.9
			C226.8,455.6,222.3,454,219.3,454.4z"/>
		<path class="st40" d="M279.5,282.3c10.6-5.9,15.6-14.7,13.9-27c7.3,2.3,8.9,6.3,4.7,13.1c-3,4.9-5.3,10.2-10.1,13.8
			C285.3,282,282.5,288.7,279.5,282.3z"/>
		<path class="st41" d="M330.8,280.3c0.8-0.1,1.5-0.1,2.3-0.2c1.3,1.7,2.7,3.5,4.7,6.1c-10.3,0-19.9,0-29.4,0c-2.6-5,1-4.8,4.1-5
			C318.6,280.8,324.8,282.1,330.8,280.3z"/>
		<path class="st42" d="M329.2,275.2c-0.5,0.5-0.9,1.1-1.4,1.6c-0.3-0.4-0.7-0.8-1-1.2c-1.4-20-1.8-40,0.1-60c0,0-0.1,0.2-0.1,0.2
			c4.4,0.7,2.3,4.1,2.3,6.3C329.3,239.9,329.2,257.6,329.2,275.2z"/>
		<path class="st1" d="M249.9,462.9c-0.4,3.8-2.1,6.1-5.3,5.6c-4.6-0.6-7.1-4.2-7.6-8.5c-0.4-3.2,2.6-3.5,5.1-3.4
			C246.4,456.8,248.4,459.8,249.9,462.9z"/>
		<path class="st43" d="M283.2,89.6c6.2-3,12.4-5.9,18.5-8.9c1.7,2.4,1.5,4.7-0.1,7c-6.2,2.2-12.9,3.5-16.5,9.9
			C281.2,95.7,286.1,91.8,283.2,89.6z"/>
		<path class="st44" d="M171.5,286.1c-0.1-4.2,2.9-3.8,5.6-3.8c7.8,0,15.5,0.1,23.3,0.2c0.9,0.7,2.4,0.9,2.6,2.4
			C192.6,287.9,182,285.9,171.5,286.1z"/>
		<path class="st1" d="M448.7,302.5c-0.1,0.6-2.2,2.4-5.8,2.3c-3.5,0-5-2.7-5.3-5.3c-0.4-4.2,3-4.8,6.3-4.8
			C447.1,294.7,449.4,295.6,448.7,302.5z"/>
		<path class="st45" d="M289.1,228c1.1-6.2,3.6-11.8,8.1-16.4c1.3,0.2,2.8-0.1,3.8,0.5c1.6,1,0.3,3-0.5,3.1
			C292.6,216,300.5,230.6,289.1,228z"/>
		<path class="st1" d="M469,236.5c-5.4-4.1-5.9-8.2-4.3-12.6c0.5-1.3,2.5-1.9,3.4-0.9C471.5,226.7,470,231,469,236.5z"/>
		<path class="st46" d="M275.2,214.6l0.3,0.7l-0.6,0.5c-12.3,1.3-15.3,4.6-16.8,18.4c-1.3,0.3-2.3,0-3-1.1
			C253.8,218.6,262.6,210.5,275.2,214.6z"/>
		<path class="st47" d="M264.7,271.6c-1.5,1.7-2.6,3.9-5.1,0.9c-3.8-4.5-6.6-9.3-6.9-15.3c1-1.4-0.3-4.2,2.7-4.5
			c3.6,4.4,1,11.7,7,15C264,268.5,265,269.6,264.7,271.6z"/>
		<path class="st1" d="M425.7,327.5c-0.6,2.8-3,3.5-5.2,3.7c-2.4,0.2-3.7-1.6-3.9-3.8c-0.3-2.6,1.4-3.6,3.7-3.6
			C422.8,323.8,424.9,324.6,425.7,327.5z"/>
		<path class="st1" d="M187,442.3c2.7,0.3,4.4,1.9,4.6,4.5c0.2,2.2-0.8,4.3-3.3,4.1c-2.5-0.1-4.5-1.6-4.6-4.5
			C183.7,444.3,184.3,442.4,187,442.3z"/>
		<path class="st48" d="M210.6,282.3c5.6-4.9,11.2-9.8,16.8-14.6C225.7,277.1,219.2,280.9,210.6,282.3z"/>
		<path class="st49" d="M330.8,280.3c-4.9,3.8-10.6,1-15.9,1.9c-2.7,0.5-6.8-1.3-6.5,4c-2.9-1.3-2.3-3.9-2.2-6.3
			C314.4,280.1,322.6,280.2,330.8,280.3z"/>
		<path class="st50" d="M273.1,284.3c1.3,0.1,2.7,0.2,4,0.2c1.5,0.4,3.1,0.5,4.1,1.8c-7.1,1.2-14.4,3.5-20.8-2.2
			c0,0-0.2,0.2-0.2,0.2C264.5,282.7,268.8,282.7,273.1,284.3z"/>
		<path class="st6" d="M299,385.5c0.3,0.2,0.7,0.3,0.9,0.5c1.5,2.9,6.5,6.5,3.2,8.8c-3.8,2.7-5.9-2.6-7.8-5.7
			C296.5,388,297.8,386.8,299,385.5z"/>
		<path class="st51" d="M412.1,49.7c-9-0.6-18.2,2-27.1-1.5C394.1,47.8,403.3,45.5,412.1,49.7z"/>
		<path class="st1" d="M121,87.1c-0.4,1.8-1.4,3.6-3.8,3.3c-1.8-0.2-2.6-2-2.7-3.7c-0.2-2.6,1.7-3.4,3.9-3.4
			C120.2,83.5,121.2,84.8,121,87.1z"/>
		<path class="st1" d="M41.6,285.8c0.1,2.3-1.7,2.9-3.3,3.4c-2.2,0.7-4.4-0.4-5.1-2.4c-0.7-2.1,1.6-2.8,3.1-3.3
			C38.6,282.8,40.2,284.1,41.6,285.8z"/>
		<path class="st52" d="M262.4,267.7c-8-2.3-5-10.1-7.7-15.1c-1-0.3-1.3-0.9-0.8-1.8c0.7-0.5,1.6-0.8,2.5-0.8
			c0.9,0.2,1.5,0.8,1.8,1.7C258.1,257.3,259.7,262.6,262.4,267.7z"/>
		<path class="st53" d="M258.1,251.6c-0.6-0.3-1.3-0.4-2-0.4c-2.9-4.9-2.1-10.1-1-15.3c0.4-0.4,0.8-0.9,1.2-1.3
			c0.7-0.1,1.3-0.2,2-0.3C260.3,240,257.9,245.8,258.1,251.6z"/>
		<path class="st54" d="M233.2,252.8c-3.1-5.4-3.1-10.7,0.1-16C233.3,242.1,233.3,247.5,233.2,252.8z"/>
		<path class="st1" d="M115.5,103.1c3.2-1.7,6.4-1.7,9.7,0C122,103.1,118.8,103.1,115.5,103.1z"/>
		<path class="st55" d="M227.3,267.8c-0.9-4.3,2.5-7.5,2.7-11.6c2.7,1.3,1.3,3.6,1.7,5.4C229.9,263.5,230.9,267.3,227.3,267.8z"/>
		<path class="st56" d="M281.2,286.4c-1.4-0.6-2.8-1.2-4.1-1.8c0.8-0.7,1.6-1.5,2.4-2.2c2.9,3.2,5.7-2,8.6-0.1
			C286.9,285.4,283.7,285.3,281.2,286.4z"/>
		<path class="st48" d="M203,284.8c-0.9-0.8-1.7-1.6-2.6-2.4c3.5-0.1,6.9-0.2,10.4-0.2C209.1,285.8,205.6,284,203,284.8z"/>
		<path class="st29" d="M127.2,167.4c-0.6,3.7-2.7,5.9-6.4,6.6C121.9,170.9,124.1,168.7,127.2,167.4z"/>
		<path class="st1" d="M36.1,234c-0.5,0.5-1.1,1.1-1.8,1.7c-0.4-0.7-1.1-1.4-1.2-2.1c-0.1-0.4,0.7-1.2,1.2-1.5
			C35.7,231.4,35.9,232.5,36.1,234z"/>
		<path class="st36" d="M131.3,332.2c6.4-0.8,11.5-0.2,8.6,8.4C136,338.8,133.9,335.3,131.3,332.2z"/>
		<path class="st57" d="M202.4,216.2c13.1,11.1,16.8,35.1,7.8,50.3c-4.1,6.8-10.1,10-18,9.4c-3.1-2.9-3.1-6.7-3.1-10.4
			c-0.1-12.3-0.2-24.6,0-36.9C189.3,216.9,190.4,216,202.4,216.2z"/>
		<path class="st58" d="M189.6,275.8c-3.5,0-3.6-2.4-3.5-4.9c0.1-18.2,0.1-36.3,0.3-54.5c0-0.8,1-1.5,1.6-2.3c1.9,0.8,3.2,2.1,3,4.4
			c-0.2,15.8,0,31.6-0.1,47.4C190.8,269.2,191.9,272.7,189.6,275.8z"/>
		<path class="st59" d="M189.6,275.8c0.1-20,0.2-39.9,0.4-59.9c2.9-2.7,6.9,0.2,9.9-2c1.5,0,2.3,0.7,2.5,2.2
			c-12.6,1.6-10.6,11.1-10.5,19.6c0.1,13.4,0.2,26.7,0.3,40.1C191.3,275.8,190.5,275.8,189.6,275.8z"/>
		<path class="st60" d="M199.9,213.9c-2.7,3.5-6.7,0.7-9.9,2c-0.7-0.6-1.4-1.3-2.1-1.9C191.9,212.6,195.9,214,199.9,213.9z"/>
		<path class="st49" d="M275.2,214.6c-13.6-1.6-19.7,4.8-19,19.9c0,0,0.2-0.1,0.2-0.1c-0.6,0.8-1.4,0.9-2.4,0.6
			c-1.4-2-0.3-4.5-1.3-6.6c3.7-13.8,10.7-19.4,20.6-16.6C274.7,212.2,275.5,213,275.2,214.6z"/>
		<path class="st53" d="M252.7,228.4c0.6,2.2,1.2,4.4,1.8,6.6c1.4,5.3,0.7,10.7,0.4,16.1c-0.1,0.5-0.2,1-0.2,1.5
			c-0.7,1.5-1.3,3.1-2,4.6C250.7,247.6,251.1,238,252.7,228.4z"/>
		<path class="st61" d="M273.1,284.3c-4.3,0-8.6,0-12.8,0C264.5,280.6,268.8,281.7,273.1,284.3z"/>
		<path class="st62" d="M326.9,215.7c0,20-0.1,40-0.1,60c-3.4-1-2.1-3.9-2.1-6c-0.1-16.1-0.1-32.2,0-48.2
			C324.7,219.5,323.3,216.5,326.9,215.7z"/>
		<path class="st63" d="M254.9,251.1c-0.1-5.4-0.3-10.7-0.4-16.1c0.5-0.5,1.2-0.7,1.9-0.6c-0.1,5.6-0.2,11.1-0.3,16.7
			C255.7,251.1,255.3,251.1,254.9,251.1z"/>
	</g>
</g>
</svg>
